<?xml version="1.0" encoding="UTF-8" standalone="no"?> <svg id="Layer_1" data-name="Layer 1" xmlns="http://www.w3.org/2000/svg" viewBox="0 0 64 64"><rect x="31" y="2" width="2" height="4"/><rect x="36.364" y="5.636" width="4" height="2" transform="translate(6.544 29.071) rotate(-45)"/><rect x="24.636" y="4.636" width="2" height="4" transform="translate(2.818 20.073) rotate(-45.005)"/><path d="M57.74,34,53.1,33.99a3.5,3.5,0,1,0-.194,0l-5.042-.007L45,32l-2.333-4H46V12H33v4h1a4,4,0,0,1,0,8H33v4h6l3,6,5.952,4.987L48,62h4l.8-13.606a.2.2,0,0,1,.4,0L54,62h4V39l.5,3,.5,6h3V41l-1.379-4.827A3,3,0,0,0,57.74,34Z"/><path d="M36,20a2,2,0,0,0-2-2H31V12H18V28h3.333L19,32l-2.86,1.983L11.1,33.99a3.5,3.5,0,1,0-.194,0L6.26,34a3,3,0,0,0-2.881,2.176L2,41v7H5l.5-6L6,39V62h4l.8-13.606a.2.2,0,0,1,.4,0L12,62h4l.048-23.013L22,34l3-6h6V22h3A2,2,0,0,0,36,20Z"/></svg>