<?xml version="1.0" encoding="UTF-8"?>
<!DOCTYPE svg PUBLIC "-//W3C//DTD SVG 1.1//EN" "http://www.w3.org/Graphics/SVG/1.1/DTD/svg11.dtd">
<!-- Creator: CorelDRAW -->
<svg xmlns="http://www.w3.org/2000/svg" xml:space="preserve" width="512px" height="512px" version="1.1" style="shape-rendering:geometricPrecision; text-rendering:geometricPrecision; image-rendering:optimizeQuality; fill-rule:evenodd; clip-rule:evenodd"
viewBox="0 0 512 512"
 xmlns:xlink="http://www.w3.org/1999/xlink">
 <defs>
  <style type="text/css">
   <![CDATA[
    .fil0 {fill:black}
   ]]>
  </style>
 </defs>
 <g id="Layer_x0020_1">
  <metadata id="CorelCorpID_0Corel-Layer"/>
  <g id="_487878568">
   <g>
    <g>
     <path class="fil0" d="M424 496l-364 0c-33,0 -60,-27 -60,-61 0,-33 27,-60 60,-60l364 0c34,0 60,27 60,60 0,34 -26,61 -60,61zm-364 -106c-25,0 -46,20 -46,45 0,26 21,46 46,46l364 0c25,0 46,-20 46,-46 0,-25 -21,-45 -46,-45l-364 0z"/>
    </g>
    <g>
     <path class="fil0" d="M318 193c-2,0 -4,-1 -5,-2 -3,-3 -3,-8 0,-11l90 -89c3,-3 7,-3 10,0 3,3 3,7 0,10l-90 90c-1,1 -3,2 -5,2zm-29 -36c-1,0 -3,-1 -5,-2 -2,-3 -2,-8 0,-11l86 -85c3,-3 7,-3 10,0 3,3 3,8 0,11l-85 85c-2,1 -3,2 -6,2z"/>
    </g>
    <g>
     <path class="fil0" d="M411 104c-24,0 -43,-20 -43,-44 0,-24 19,-44 43,-44 24,0 44,20 44,44 -1,25 -20,44 -44,44zm0 -73c-16,0 -29,13 -29,29 0,17 13,30 29,30 16,0 29,-13 29,-30 0,-16 -13,-29 -29,-29z"/>
    </g>
    <g>
     <path class="fil0" d="M458 234c-3,0 -5,-2 -6,-5l-48 -130c-1,-4 1,-8 4,-9 4,-1 8,0 10,4l47 130c1,4 0,8 -4,9 -1,1 -2,1 -3,1zm36 -13c-3,0 -6,-2 -7,-5l-49 -138c-2,-4 0,-8 4,-10 4,-1 8,1 9,5l50 138c1,4 0,8 -4,10 -1,0 -2,0 -3,0z"/>
    </g>
    <g>
     <path class="fil0" d="M450 313c-26,0 -49,-15 -59,-40l-7 -19c-1,-2 0,-4 1,-6 1,-2 2,-3 4,-4l103 -37c2,-1 4,0 5,1 2,1 3,2 4,4l7 19c6,15 5,32 -2,47 -7,15 -19,27 -35,33 -7,1 -14,2 -21,2zm-49 -58l4 13c9,24 36,37 61,28 11,-4 21,-13 26,-25 6,-11 6,-24 2,-35l-4 -13 -89 32z"/>
    </g>
    <g>
     <path class="fil0" d="M332 348c-4,0 -8,-4 -8,-8l0 -35 -163 -31c-3,-1 -6,-4 -6,-7l0 -34 -58 0c-9,0 -16,7 -16,15l0 92c0,4 -3,8 -7,8 -4,0 -8,-4 -8,-8l0 -91c0,-17 14,-30 30,-30l67 0c4,0 7,3 7,7l0 35 163 31c3,1 6,4 6,7l0 41c0,5 -3,8 -7,8z"/>
    </g>
    <g>
     <path class="fil0" d="M332 306c-4,0 -8,-3 -8,-7l0 -58c0,-62 -50,-113 -113,-113l-63 0c-4,0 -7,3 -7,7l0 91c0,4 -3,8 -8,8 -4,0 -7,-4 -7,-8l0 -91c0,-12 10,-21 22,-21l63 0c71,0 128,57 128,127l0 58c0,4 -3,7 -7,7z"/>
    </g>
    <g>
     <path class="fil0" d="M200 281c-5,0 -8,-3 -8,-7l0 -153c0,-4 3,-8 8,-8 4,0 7,4 7,8l0 153c0,4 -3,7 -7,7z"/>
    </g>
    <g>
     <g>
      <path class="fil0" d="M63 469c-19,0 -34,-15 -34,-34 0,-18 15,-34 34,-34 19,0 34,16 34,34 0,19 -16,34 -34,34zm0 -53c-12,0 -20,9 -20,19 0,12 9,20 20,20 11,0 20,-9 20,-20 0,-10 -9,-19 -20,-19z"/>
     </g>
     <g>
      <path class="fil0" d="M183 469c-19,0 -35,-15 -35,-34 0,-18 16,-34 35,-34 18,0 34,16 34,34 0,19 -16,34 -34,34zm0 -53c-12,0 -20,9 -20,19 0,12 9,20 20,20 11,0 19,-9 19,-20 0,-10 -9,-19 -19,-19z"/>
     </g>
     <g>
      <path class="fil0" d="M302 469c-19,0 -35,-15 -35,-34 0,-18 16,-34 35,-34 19,0 34,16 34,34 0,19 -15,34 -34,34zm0 -53c-11,0 -20,9 -20,19 0,11 9,20 20,20 11,0 19,-9 19,-20 1,-10 -8,-19 -19,-19z"/>
     </g>
     <g>
      <path class="fil0" d="M422 469c-19,0 -34,-15 -34,-34 0,-18 15,-34 34,-34 19,0 34,16 34,34 0,19 -16,34 -34,34zm0 -53c-11,0 -20,9 -20,19 0,11 9,20 20,20 11,0 20,-9 20,-20 0,-10 -9,-19 -20,-19z"/>
     </g>
    </g>
    <g>
     <path class="fil0" d="M422 390c-4,0 -8,-4 -8,-8l0 -34 -344 0 0 34c0,4 -4,8 -8,8 -4,0 -7,-4 -7,-8l0 -42c0,-4 3,-7 7,-7l360 0c4,0 7,3 7,7l0 42c0,4 -4,8 -7,8z"/>
    </g>
   </g>
  </g>
 </g>
</svg>
