<?xml version="1.0" encoding="UTF-8"?>
<!DOCTYPE svg PUBLIC "-//W3C//DTD SVG 1.1//EN" "http://www.w3.org/Graphics/SVG/1.1/DTD/svg11.dtd">
<!-- Creator: CorelDRAW -->
<svg xmlns="http://www.w3.org/2000/svg" xml:space="preserve" width="1.70666in" height="1.70666in" version="1.1" style="shape-rendering:geometricPrecision; text-rendering:geometricPrecision; image-rendering:optimizeQuality; fill-rule:evenodd; clip-rule:evenodd"
viewBox="0 0 1707 1707"
 xmlns:xlink="http://www.w3.org/1999/xlink">
 <defs>
  <style type="text/css">
   <![CDATA[
    .fil0 {fill:black}
   ]]>
  </style>
 </defs>
 <g id="Layer_x0020_1">
  <metadata id="CorelCorpID_0Corel-Layer"/>
  <g id="_382374240">
   <g>
    <g>
     <path class="fil0" d="M499 1624c-13,0 -25,-11 -25,-25l0 -1505c0,-25 -20,-46 -44,-46 -25,0 -46,21 -46,46l0 1506c0,14 -11,25 -25,25 -14,0 -25,-11 -25,-25l0 -1506c0,-51 43,-94 95,-94 51,0 93,41 93,94l0 1506c2,14 -9,24 -23,24z"/>
    </g>
    <g>
     <path class="fil0" d="M594 1707l-326 0c-14,0 -25,-11 -25,-25l0 -56c0,-27 23,-52 52,-52l271 0c29,0 53,23 53,52l0 56c-2,14 -13,25 -25,25zm-303 -49l278 0 0 -30c0,-2 -2,-4 -4,-4l-270 0c-1,0 -4,2 -4,4l0 30z"/>
    </g>
    <g>
     <path class="fil0" d="M1236 708c-13,0 -25,-12 -25,-25 0,-117 -83,-218 -197,-239 -12,-3 -22,-15 -19,-28 3,-12 15,-22 28,-19 137,25 236,145 236,287 2,12 -9,24 -23,24zm-534 0c-14,0 -25,-12 -25,-25 0,-141 100,-261 236,-288 14,-2 26,6 28,20 3,14 -6,26 -20,28 -113,20 -197,122 -197,238 3,15 -8,27 -22,27z"/>
    </g>
    <g>
     <path class="fil0" d="M1254 792l-569 0c-36,0 -66,-30 -66,-66 0,-38 30,-67 66,-67l569 0c38,0 67,31 67,67 0,36 -30,66 -67,66zm-569 -84c-9,0 -18,8 -18,18 0,9 10,18 18,18l569 0c10,0 18,-10 18,-18 0,-10 -8,-18 -18,-18l-569 0z"/>
    </g>
    <g>
     <path class="fil0" d="M848 554l-99 0c-14,0 -25,-12 -25,-25 0,-14 11,-25 25,-25l99 0c14,0 25,11 25,25 0,13 -11,25 -25,25z"/>
    </g>
    <g>
     <path class="fil0" d="M848 627l-133 0c-14,0 -25,-11 -25,-25 0,-14 11,-23 25,-23l133 0c14,0 25,11 25,23 0,13 -11,25 -25,25z"/>
    </g>
    <g>
     <path class="fil0" d="M1188 554l-97 0c-14,0 -25,-12 -25,-25 0,-14 11,-25 25,-25l97 0c14,0 25,11 25,25 0,13 -11,25 -25,25z"/>
    </g>
    <g>
     <path class="fil0" d="M1225 627l-133 0c-14,0 -25,-11 -25,-25 0,-14 11,-23 25,-23l133 0c14,0 25,11 25,23 0,13 -12,25 -25,25z"/>
    </g>
    <g>
     <path class="fil0" d="M1020 708l-101 0c-14,0 -25,-12 -25,-25l0 -265c0,-41 33,-74 73,-74 42,0 75,33 75,74l0 265c3,13 -8,25 -22,25zm-76 -49l52 0 0 -241c0,-14 -12,-25 -26,-25 -14,0 -25,12 -25,25l0 241 -1 0z"/>
    </g>
    <g>
     <path class="fil0" d="M1439 882l-940 0c-13,0 -25,-11 -25,-25l0 -612c0,-13 12,-25 25,-25l940 0c14,0 25,12 25,25l0 612c-1,14 -12,25 -25,25zm-915 -48l891 0 0 -564 -891 0 0 564z"/>
    </g>
   </g>
  </g>
 </g>
</svg>
