<svg version="1.1" id="Layer_1" xmlns="http://www.w3.org/2000/svg" xmlns:xlink="http://www.w3.org/1999/xlink" x="0px" y="0px" width="180px" height="47px" viewBox="0 0 180 47" enable-background="new 0 0 180 47" xml:space="preserve">
<g>
	<g>
		<path fill="#ffb000" d="M14.257,8.833C9.709,8.726,7.304,8.569,6.774,8.006C6.589,7.809,6.507,7.569,6.507,7.228
			c0-0.293,0.096-0.538,0.295-0.749c0.563-0.6,2.653-0.855,6.989-0.855c4.055,0,9.07,0.937,11.927,2.228l0.296,0.134V2.798
			l-0.128-0.054c-2.667-1.129-7.55-1.889-12.148-1.889c-6.189,0-9.553,0.77-11.245,2.572C1.154,4.851,0.974,6.409,0.974,7.746
			c0,1.499,0.445,2.832,1.221,3.657c1.623,1.728,5.01,2.48,12.078,2.687c6.386,0.198,7.151,0.503,7.537,0.913
			c0.173,0.185,0.241,0.387,0.241,0.72c0,0.256-0.032,0.528-0.269,0.778c-0.791,0.843-4.33,0.913-7.585,0.913
			c-4.838,0-10.854-1.314-13.438-2.543l-0.3-0.142v5.19l0.124,0.055c2.995,1.341,8.338,2.208,13.613,2.208
			c6.412,0,10.218-0.872,11.976-2.745c0.962-1.023,1.41-2.396,1.41-4.319c0-1.535-0.465-2.91-1.274-3.772
			C24.729,9.665,21.575,9.007,14.257,8.833z"></path>
		<path fill="#ffb000" d="M54.108,11.865c0,1.738-0.354,2.858-1.189,3.746c-1.167,1.273-3.627,1.919-7.313,1.919
			s-6.146-0.646-7.315-1.922c-0.832-0.886-1.188-2.006-1.188-3.744V1.229h-5.803v11.672c0,2.642,0.648,4.459,2.167,6.076
			c2.221,2.364,6.077,3.464,12.139,3.464c6.061,0,9.918-1.101,12.138-3.464c1.52-1.617,2.168-3.434,2.168-6.076V1.229h-5.804V11.865
			z"></path>
		<polygon fill="#ffb000" points="82.946,17.795 73.913,1.229 64.9,1.229 64.9,21.808 70.434,21.808 70.434,6.088 79.511,21.808 
			86.166,21.808 95.139,6.172 95.218,21.808 100.966,21.808 100.966,1.229 91.926,1.229 		"></polygon>
		<polygon fill="#ffb000" points="124.323,17.795 115.29,1.229 106.278,1.229 106.278,21.808 111.812,21.808 111.812,6.088 
			120.889,21.808 127.543,21.808 136.516,6.172 136.595,21.808 142.343,21.808 142.343,1.229 133.303,1.229 		"></polygon>
		<path fill="#ffb000" d="M165.712,1.207l-0.063-0.093h-7.15l-13.89,20.694h6.458l2.57-3.917h16.604l2.57,3.917h6.729L165.712,1.207
			z M167.206,13.296h-10.559l5.291-8.021L167.206,13.296z"></path>
	</g>
	<rect x="0.46" y="27.121" fill="#C62127" width="179.08" height="19.879"></rect>
</g>
</svg>