<?xml version="1.0" encoding="UTF-8" standalone="no"?> <svg id="Line" xmlns="http://www.w3.org/2000/svg" viewBox="0 0 64 64"><title>1</title><path d="M57,7.85693H48.83594c-1.11616-5.08493-8.66521-5.0934-9.78222.00015L24.89111,7.85693c-1.1047-5.07983-8.67142-5.0947-9.78221.00015L7,7.85693a2.9684,2.9684,0,0,0-3,2.92871V57.07129A2.96839,2.96839,0,0,0,7,60H57a2.96839,2.96839,0,0,0,3-2.92871V56a1.00015,1.00015,0,0,0-2,.00005v1.07124A.96744.96744,0,0,1,57,58H7a.96744.96744,0,0,1-1-.92871V21.42871h6a1.00018,1.00018,0,0,0,0-2H6V10.78564a.96745.96745,0,0,1,1-.92871h8.10889A4.97471,4.97471,0,0,0,20,13.71436a1.0001,1.0001,0,0,0,0-2,2.93451,2.93451,0,0,1-3-2.85743c.00822-3.17058,4.68387-3.91675,5.80018-.99988L20,7.85693a1.00019,1.00019,0,0,0,.00007,2H39.05371a4.97473,4.97473,0,0,0,4.89111,3.85743,1.00012,1.00012,0,0,0-.00005-2A2.85921,2.85921,0,1,1,43.94491,6,2.99407,2.99407,0,0,1,46.745,7.85693H44a1,1,0,0,0,0,2H57a.96745.96745,0,0,1,1,.92871v8.64307H18.62012a1,1,0,0,0,0,2H58V50.71436a1.00015,1.00015,0,0,0,2-.00007l0-39.92865A2.9684,2.9684,0,0,0,57,7.85693Z"/><path d="M18,27.71436a3.00328,3.00328,0,0,0-3-3H13a3.00328,3.00328,0,0,0-3,3v2a3.00328,3.00328,0,0,0,3,3h2a3.00328,3.00328,0,0,0,3-3Zm-2,2a1.0013,1.0013,0,0,1-1,1H13a1.0013,1.0013,0,0,1-1-1v-2a1.0013,1.0013,0,0,1,1-1h2a1.0013,1.0013,0,0,1,1,1Z"/><path d="M30,27.71436a3.00328,3.00328,0,0,0-3-3H25a3.00328,3.00328,0,0,0-3,3v2a3.00328,3.00328,0,0,0,3,3h2a3.00328,3.00328,0,0,0,3-3Zm-2,2a1.0013,1.0013,0,0,1-1,1H25a1.0013,1.0013,0,0,1-1-1v-2a1.0013,1.0013,0,0,1,1-1h2a1.0013,1.0013,0,0,1,1,1Z"/><path d="M42,27.71436a3.00328,3.00328,0,0,0-3-3H37a3.00328,3.00328,0,0,0-3,3v2a3.00328,3.00328,0,0,0,3,3h2a3.00328,3.00328,0,0,0,3-3Zm-2,2a1.0013,1.0013,0,0,1-1,1H37a1.0013,1.0013,0,0,1-1-1v-2a1.0013,1.0013,0,0,1,1-1h2a1.0013,1.0013,0,0,1,1,1Z"/><path d="M54,27.71436a3.00328,3.00328,0,0,0-3-3H49a3.00328,3.00328,0,0,0-3,3v2a3.00328,3.00328,0,0,0,3,3h2a3.00328,3.00328,0,0,0,3-3Zm-2,2a1.0013,1.0013,0,0,1-1,1H49a1.0013,1.0013,0,0,1-1-1v-2a1.0013,1.0013,0,0,1,1-1h2a1.0013,1.0013,0,0,1,1,1Z"/><path d="M18,38.71436a3.00328,3.00328,0,0,0-3-3H13a3.00328,3.00328,0,0,0-3,3v2a3.00328,3.00328,0,0,0,3,3h2a3.00328,3.00328,0,0,0,3-3Zm-2,2a1.0013,1.0013,0,0,1-1,1H13a1.0013,1.0013,0,0,1-1-1v-2a1.0013,1.0013,0,0,1,1-1h2a1.0013,1.0013,0,0,1,1,1Z"/><path d="M30,38.71436a3.00328,3.00328,0,0,0-3-3H25a3.00328,3.00328,0,0,0-3,3v2a3.00328,3.00328,0,0,0,3,3h2a3.00328,3.00328,0,0,0,3-3Zm-2,2a1.0013,1.0013,0,0,1-1,1H25a1.0013,1.0013,0,0,1-1-1v-2a1.0013,1.0013,0,0,1,1-1h2a1.0013,1.0013,0,0,1,1,1Z"/><path d="M42,38.71436a3.00328,3.00328,0,0,0-3-3H37a3.00328,3.00328,0,0,0-3,3v2a3.00328,3.00328,0,0,0,3,3h2a3.00328,3.00328,0,0,0,3-3Zm-2,2a1.0013,1.0013,0,0,1-1,1H37a1.0013,1.0013,0,0,1-1-1v-2a1.0013,1.0013,0,0,1,1-1h2a1.0013,1.0013,0,0,1,1,1Z"/><path d="M54,38.71436a3.00328,3.00328,0,0,0-3-3H49a3.00328,3.00328,0,0,0-3,3v2a3.00328,3.00328,0,0,0,3,3h2a3.00328,3.00328,0,0,0,3-3Zm-2,2a1.0013,1.0013,0,0,1-1,1H49a1.0013,1.0013,0,0,1-1-1v-2a1.0013,1.0013,0,0,1,1-1h2a1.0013,1.0013,0,0,1,1,1Z"/><path d="M15,46.71436H13a3.00328,3.00328,0,0,0-3,3v2a3.00328,3.00328,0,0,0,3,3h2a3.00328,3.00328,0,0,0,3-3v-2A3.00328,3.00328,0,0,0,15,46.71436Zm1,5a1.0013,1.0013,0,0,1-1,1H13a1.0013,1.0013,0,0,1-1-1v-2a1.0013,1.0013,0,0,1,1-1h2a1.0013,1.0013,0,0,1,1,1Z"/><path d="M27,46.71436H25a3.00328,3.00328,0,0,0-3,3v2a3.00328,3.00328,0,0,0,3,3h2a3.00328,3.00328,0,0,0,3-3v-2A3.00328,3.00328,0,0,0,27,46.71436Zm1,5a1.0013,1.0013,0,0,1-1,1H25a1.0013,1.0013,0,0,1-1-1v-2a1.0013,1.0013,0,0,1,1-1h2a1.0013,1.0013,0,0,1,1,1Z"/><path d="M39,46.71436H37a3.00328,3.00328,0,0,0-3,3v2a3.00328,3.00328,0,0,0,3,3h2a3.00328,3.00328,0,0,0,3-3v-2A3.00328,3.00328,0,0,0,39,46.71436Zm1,5a1.0013,1.0013,0,0,1-1,1H37a1.0013,1.0013,0,0,1-1-1v-2a1.0013,1.0013,0,0,1,1-1h2a1.0013,1.0013,0,0,1,1,1Z"/><path d="M51,46.71436H49a3.00328,3.00328,0,0,0-3,3v2a3.00328,3.00328,0,0,0,3,3h2a3.00328,3.00328,0,0,0,3-3v-2A3.00328,3.00328,0,0,0,51,46.71436Zm1,5a1.0013,1.0013,0,0,1-1,1H49a1.0013,1.0013,0,0,1-1-1v-2a1.0013,1.0013,0,0,1,1-1h2a1.0013,1.0013,0,0,1,1,1Z"/></svg>